<svg xmlns="http://www.w3.org/2000/svg" width="64" height="64" id="discount">
  <g transform="translate(0 -988.362)">
    <circle cx="1902.879" cy="1580.362" r="32" fill="#e6e6dc" transform="translate(-1870.881 -560.002)"></circle>
    <path fill="#d0cfbf" d="m10.207 1043.739.01.01a32 32 0 0 0 1.17 1.09 32 32 0 0 0 2.547 1.935 32 32 0 0 0 2.726 1.672 32 32 0 0 0 2.881 1.393 32 32 0 0 0 3.004 1.096 32 32 0 0 0 3.1.79 32 32 0 0 0 3.162.48 32 32 0 0 0 3.195.16 32 32 0 0 0 2.264-.08 32 32 0 0 0 3.176-.386 32 32 0 0 0 3.12-.7 32 32 0 0 0 3.036-1.009 32 32 0 0 0 2.92-1.306 32 32 0 0 0 .234-.135v-.039a32 32 0 0 0 3.06-1.79 32 32 0 0 0 2.083-1.49 32 32 0 0 0 2.402-2.11 32 32 0 0 0 2.18-2.34 32 32 0 0 0 1.935-2.547 32 32 0 0 0 1.672-2.727 32 32 0 0 0 1.393-2.88 32 32 0 0 0 1.095-3.005 32 32 0 0 0 .791-3.1 32 32 0 0 0 .479-3.161 32 32 0 0 0 .16-3.196 32 32 0 0 0-.08-2.263 32 32 0 0 0-.012-.09l-14.865-14.865-.018-.018c-.053-.053-.115-.094-.172-.143-.07-.058-.134-.12-.21-.172-.042-.029-.092-.049-.138-.076-.099-.058-.196-.119-.303-.164a2.636 2.636 0 0 0-1.01-.205H17.567c-.182 0-.36.019-.532.055-1.199.248-2.095 1.323-2.095 2.62v27.114l-4.72 1.266v10.324z"></path>
    <path fill="#ff9300" d="m60.48 1026.485-14.547 3.898v-11.647l14.546-3.898-4.325 8.217z"></path>
    <path fill="#ff7c00" d="m45.483 1029.42 8.914 3.898v-11.647l-8.914-3.898z"></path>
    <path fill="#ff9300" d="m18.063 1036.59-11.538 3.092a32 32 0 0 0 10.362 8.871l1.176-.314v-11.648z"></path>
    <path fill="#ff7c00" d="M10.207 1033.417v10.322a32 32 0 0 0 3.475 2.844l5.44 2.377v-11.647l-8.915-3.896z"></path>
    <path fill="#f9f9f9" d="M17.555 1002.36c-1.455 0-2.627 1.193-2.627 2.676v42.346a32 32 0 0 0 17.07 4.978 32 32 0 0 0 17.81-5.445v-41.88c0-1.482-1.17-2.675-2.624-2.675h-29.63z"></path>
    <path fill="#4f5863" d="M18.807 1008.157v41.324a32 32 0 0 0 13.191 2.88 32 32 0 0 0 13.936-3.222v-40.982H18.807z"></path>
    <path fill="#333" fill-opacity=".423" d="m49.798 1024.434-34.882 9.326v11.687l34.882-9.386v-11.627z"></path>
    <path fill="#4f5863" d="M28.567 1004.307v1.912h7.752v-1.913h-7.752z" color="#000" font-family="Sans" font-weight="400" overflow="visible" style="text-indent:0;text-align:start;line-height:normal;text-transform:none;block-progression:tb;marker:none;-inkscape-font-specification:Sans"></path>
    <ellipse cx="1890.715" cy="1565.252" fill="#4f5863" rx=".982" ry=".969" transform="translate(-1870.881 -560.002)"></ellipse>
    <path fill="#ffb400" d="m54.397 1021.573-44.19 11.842v10.324a32 32 0 0 0 1.102 1.027l43.088-11.547v-11.646z"></path>
    <path fill="#fff" d="m21.385 1039.312 1.526-.41c.482-.128.842-.357 1.08-.679.24-.322.359-.73.358-1.223v-3.104c0-.493-.118-.837-.357-1.031-.239-.195-.599-.228-1.08-.1l-1.527.408zm1.509-5.666c.154-.042.275-.032.36.037.086.069.13.211.13.427v3.193c0 .217-.044.382-.13.497a.621.621 0 0 1-.36.23l-.544.146v-4.385zm2.071 4.707.965-.259v-6.139l-.965.259zm1.539-5.078c.023.562.186.966.488 1.211.303.245.606.463.908.653.303.19.466.485.49.884-.003.217-.047.383-.136.499a.638.638 0 0 1-.365.231c-.155.042-.277.032-.365-.036-.088-.068-.133-.21-.135-.426v-.439l-.912.245v.377c.001.494.122.841.364 1.042.242.202.6.24 1.075.116.474-.127.832-.36 1.074-.691.242-.331.363-.744.364-1.238-.024-.562-.186-.966-.49-1.211a9.39 9.39 0 0 0-.907-.653c-.302-.19-.465-.485-.489-.884.001-.217.043-.384.126-.5a.603.603 0 0 1 .357-.234c.154-.041.273-.03.356.043.083.072.125.216.126.433v.254l.912-.244v-.193c0-.494-.12-.842-.358-1.044-.239-.202-.593-.242-1.063-.119-.47.126-.823.358-1.062.688-.238.33-.358.742-.358 1.236zm5.28.962v.877c-.002.217-.047.383-.135.498a.638.638 0 0 1-.366.232c-.155.042-.276.032-.365-.036-.088-.068-.133-.21-.134-.427v-3.315c.001-.217.046-.385.134-.503a.636.636 0 0 1 .365-.236c.156-.041.277-.03.366.04.088.07.133.215.134.431v.658l.912-.244v-.597c0-.493-.122-.84-.364-1.042-.241-.201-.6-.24-1.074-.116-.474.127-.832.36-1.074.691-.242.331-.363.744-.364 1.238v3.192c0 .494.122.841.364 1.043.242.2.6.24 1.074.115.474-.127.833-.36 1.074-.691.242-.33.364-.743.364-1.238v-.815zm2.391-3.08c.002-.217.047-.384.135-.502a.636.636 0 0 1 .365-.236c.155-.042.277-.03.365.04.088.07.133.214.135.43v3.316c-.002.217-.047.385-.135.503a.636.636 0 0 1-.365.236c-.155.042-.277.03-.365-.04-.088-.07-.133-.215-.135-.431zm-.965 3.513c.002.493.128.84.377 1.039.25.199.613.236 1.088.112.475-.127.838-.362 1.087-.695.25-.333.376-.746.377-1.24v-3.193c-.001-.493-.127-.84-.377-1.04-.25-.198-.612-.235-1.087-.111-.475.127-.838.362-1.088.695-.25.333-.375.746-.377 1.24zm5.617-.032.991-.265v-6.139l-.86.23v3.675l-.99-3.41-1.21.325v6.139l.868-.233v-4.446zm1.41-5.64 1.008-.27v5.262l.965-.258v-5.262l1.008-.27v-.877l-2.981.799z" font-family="Bebas Neue Bold" font-size="8.77" font-weight="700" letter-spacing="0" style="line-height:125%;-inkscape-font-specification:Bebas Neue Bold" word-spacing="0"></path>
  </g>
</svg>
