<svg xmlns="http://www.w3.org/2000/svg" viewBox="0 0 512 512" id="offers">
  <path fill="#eee" d="M344.995 231.898a43.748 43.748 0 0 1-31.03-12.83l-21.048-21.048a43.876 43.876 0 0 1 .001-62.057l44.4-44.397a7.5 7.5 0 1 1 10.606 10.606l-44.4 44.398a28.877 28.877 0 0 0 0 40.843l21.048 21.047a28.92 28.92 0 0 0 40.848 0l44.4-44.397a7.5 7.5 0 1 1 10.606 10.606l-44.4 44.398a43.747 43.747 0 0 1-31.03 12.831Z"></path>
  <path fill="#eee" d="M330.495 116.495a7.5 7.5 0 0 1-5.303-12.804L426.695 2.196a7.5 7.5 0 1 1 10.606 10.607L335.798 114.298a7.477 7.477 0 0 1-5.303 2.197zm7.379 65.118a7.5 7.5 0 0 1-5.303-12.804L462.946 38.444a7.5 7.5 0 1 1 10.606 10.607L343.177 179.417a7.477 7.477 0 0 1-5.303 2.196zm65.123 7.378a7.5 7.5 0 0 1-5.303-12.804L499.197 74.692a7.5 7.5 0 1 1 10.606 10.607L408.3 186.794a7.477 7.477 0 0 1-5.303 2.197z"></path>
  <path fill="#4a4f60" d="M294.19 187.94 20.47 436.97c-.58.58-1.01 1.02-1.59 1.6a38.586 38.586 0 1 0 56.11 52.92l249.06-273.71"></path>
  <path fill="#3b3f4d" d="M301.897 195.64 59.99 461.49a38.74 38.74 0 0 1-52.477 5.039 38.294 38.294 0 0 0 11.227 26.7 38.71 38.71 0 0 0 56.25-1.74l249.06-273.71Z"></path>
  <path fill="#63ea86" d="m314.22 287.536 148.326 148.315a39.956 39.956 0 0 1 0 56.51 39.963 39.963 0 0 1-58.674-2.34L269.464 332.29"></path>
  <path fill="#4a4f60" d="m314.22 287.536 148.326 148.315a39.956 39.956 0 0 1 0 56.51 39.963 39.963 0 0 1-58.674-2.34L269.464 332.29"></path>
  <path fill="#3b3f4d" d="M462.546 435.851 314.22 287.536l-22.5 22.499L417.546 435.85a39.956 39.956 0 0 1 0 56.51 40.2 40.2 0 0 1-5.772 4.772 39.984 39.984 0 0 0 50.772-4.772 39.956 39.956 0 0 0 0-56.51Z"></path>
  <path fill="#eee" d="m314.22 287.536-58.861 58.857-154.05-154.039-7.818-7.817A208.08 208.08 0 0 1 34.63 7.967Z"></path>
  <path fill="#eee" d="m314.22 287.536-58.861 58.857-154.05-154.039-7.818-7.817A208.08 208.08 0 0 1 34.63 7.967Z"></path>
  <path fill="#ffe966" d="M404.284 287.167c-2.25 14.398-34.897 18.812-41.144 31.144-6.476 12.782 9.114 41.671-.793 51.604-10.007 10.033-39.008-5.49-51.615.98-12.481 6.405-16.792 39.058-30.94 41.327-13.65 2.188-27.93-27.33-42.328-29.579-14.398-2.25-37.001 21.506-49.333 15.258-12.782-6.475-6.927-38.888-16.86-48.795-10.033-10.006-42.387-4.07-48.857-16.677-6.405-12.481 17.254-35.239 14.986-49.386-2.189-13.65-31.933-27.813-29.684-42.21 2.25-14.398 34.897-18.812 41.144-31.144 6.476-12.782-9.114-41.671.793-51.604 10.007-10.033 39.008 5.49 51.615-.98 12.481-6.405 16.792-39.058 30.94-41.327 13.65-2.188 27.93 27.33 42.328 29.579 14.398 2.25 37.001-21.506 49.333-15.258 12.782 6.475 6.927 38.888 16.86 48.795 10.033 10.006 42.387 4.07 48.857 16.677 6.405 12.481-17.254 35.239-14.986 49.386 2.189 13.65 31.933 27.813 29.684 42.21Z"></path>
  <path fill="#ffe236" d="M374.6 244.957c-2.268-14.147 21.39-36.905 14.985-49.386-6.469-12.607-38.823-6.67-48.856-16.677-9.933-9.907-4.078-42.32-16.86-48.795-6.28-3.182-15.227 1.42-24.396 6.404 5.487 11.875 3.262 34.417 11.256 42.391 10.033 10.006 42.387 4.07 48.856 16.677 6.406 12.481-17.253 35.239-14.985 49.386 2.189 13.65 31.933 27.813 29.684 42.21-2.25 14.398-34.897 18.812-41.144 31.144-6.476 12.782 9.114 41.671-.793 51.604a9.597 9.597 0 0 1-.844.738c12.025 2.11 24.846 5.276 30.844-.738 9.907-9.933-5.683-38.822.793-51.604 6.247-12.332 38.894-16.746 41.144-31.144 2.25-14.397-27.495-28.56-29.684-42.21zm-203.332-87.852a12.284 12.284 0 0 0 1.731-1.11c-9.006-1.579-17.57-2.555-22.502 1.353 8.038 1.41 15.72 2.349 20.77-.243zm73.268-11.748c5.566.87 12.358-2.15 19.308-5.816-10.756-9.137-21.375-25.408-31.636-23.763-4.775.766-8.428 4.998-11.654 10.51 7.897 8.004 15.921 17.81 23.982 19.069zm-37.072 237.286c-7.065-1.103-16.104 4.053-24.937 8.854a12.788 12.788 0 0 0 5.604 6.404c7.565 3.833 18.995-3.622 30.025-9.442-3.552-3.017-7.118-5.257-10.692-5.816zm73.268-11.748c-8.269 4.243-12.953 20.001-19.286 30.818 6.208 6.292 12.338 11.472 18.346 10.509 13.471-2.16 18.029-31.851 29.209-40.217-10.529-1.846-21.655-4.504-28.269-1.11z"></path>
  <circle cx="256" cy="264" r="94.112" fill="#66c1ff"></circle>
  <circle cx="256" cy="264" r="94.112" fill="#ffc166"></circle>
  <path fill="#ffb74e" d="M256 169.888a94.767 94.767 0 0 0-15 1.195 94.121 94.121 0 0 1 0 185.834 94.115 94.115 0 1 0 15-187.029Z"></path>
  <path fill="#fff" d="M224.702 255.19a22.489 22.489 0 1 1 15.91-6.579 22.43 22.43 0 0 1-15.91 6.58zm10.607-11.882zm-10.607-18.102a7.498 7.498 0 1 0 5.304 12.798h-.001a7.496 7.496 0 0 0-5.303-12.798zm62.596 92.582a22.489 22.489 0 1 1 15.911-6.58h-.001a22.43 22.43 0 0 1-15.91 6.58zm10.607-11.883zM287.3 287.802a7.496 7.496 0 1 0 5.303 2.193 7.478 7.478 0 0 0-5.303-2.193zm-67.518 18.874a7.5 7.5 0 0 1-5.303-12.803l71.394-71.395a7.5 7.5 0 1 1 10.607 10.606l-71.394 71.395a7.48 7.48 0 0 1-5.304 2.197z"></path>
</svg>
